{"title":"Vikingdom 2013 DVD9rip English Klam","uid":9306543,"size":2188580931,"categoryP":"video","categoryS":"movies","magnet":"?xt=urn:btih:08cfacadd5b8540b1e395da2b8490332ed737e00&amp;dn=Vikingdom+2013+DVD9rip+English+Klam&amp;tr=udp%3A%2F%2Ftracker.openbittorrent.com%3A80&amp;tr=udp%3A%2F%2Fopen.demonii.com%3A1337&amp;tr=udp%3A%2F%2Ftracker.coppersurfer.tk%3A6969&amp;tr=udp%3A%2F%2Fexodus.desync.com%3A6969","seeders":0,"leechers":1,"uploader":"Klambake","files":-1,"time":1386322802,"description":"With: Dominic Purcell, Craig Fairbrass and Natassia Malthe\n\nIn het tijdperk van de Vikingen moet de krijger Eirick (Dominic Purcell) om zien te gaan met zijn gewelddadige verleden. Met behulp van zijn zwaard moet hij alles riskeren en het opnemen tegen een halfgod in een strijd om oneindige macht.\n\nA forgotten king, Eirick, is tasked with the impossible odds to defeat Thor, the God of Thunder. \n &lt;a href=&quot;\nhttp://www.imdb.com/title/tt1785669&quot; rel=&quot;nofollow&quot; target=&quot;_NEW&quot;&gt;\nhttp://www.imdb.com/title/tt1785669&lt;/a&gt;\t\n\n--------------------- Dutch Friends 4ever ---------------------\n---------------------------------------------------------------\n- Bezoek ook eens mijn vrienden op: &lt;a href=&quot; http://www.Film-Test.nl&quot; rel=&quot;nofollow&quot; target=&quot;_NEW&quot;&gt; http://www.Film-Test.nl&lt;/a&gt; --\n----- voor mijn Nederlandse Sync. ondertitels ---- en meer ----\n------- http://www.Film-Test.nl ---- Over Films en meer -------\n---------------------------------------------------------------\n\nGeneral:\n\nComplete name                    : VikingdomVikingdom.avi\nFormat                           : AVI\nFormat/Info                      : Audio Video Interleave\nFile size                        : 2.04 GiB\nDuration                         : 1h 54mn\nOverall bit rate                 : 2 550 Kbps\n\nVideo:\n\nFormat                           : MPEG-4 Visual\nFormat profile                   : Simple@L3\nFormat settings, BVOP            : No\nFormat settings, QPel            : No\nFormat settings, GMC             : No warppoints\nFormat settings, Matrix          : Default (H.263)\nCodec ID                         : XVID\nCodec ID/Hint                    : XviD\nDuration                         : 1h 54mn\nBit rate                         : 2 155 Kbps\nWidth                            : 652 pixels\nHeight                           : 352 pixels\nDisplay aspect ratio             : 1.852\nFrame rate                       : 25.000 fps\nColor space                      : YUV\nChroma subsampling               : 4:2:0\nBit depth                        : 8 bits\nScan type                        : Progressive\nCompression mode                 : Lossy\nBits/(Pixel*Frame)               : 0.376\nStream size                      : 1.72 GiB (85%)\nWriting library                  : XviD 1.1.2 (UTC 2006-11-01)\n\nAudio:\n\nFormat                           : AC-3\nFormat/Info                      : Audio Coding 3\nMode extension                   : CM (complete main)\nCodec ID                         : 2000\nDuration                         : 1h 54mn\nBit rate mode                    : Constant\nBit rate                         : 384 Kbps\nChannel(s)                       : 6 channels\nChannel positions                : Front: L C R, Side: L R, LFE\nSampling rate                    : 48.0 KHz\nBit depth                        : 16 bits\nCompression mode                 : Lossy\nStream size                      : 314 MiB (15%)\nAlignment                        : Aligned on interleaves\nInterleave, duration             : 32 ms (0.80 video frame)\nInterleave, preload duration     : 160 ms","torrent":{"xt":"urn:btih:08cfacadd5b8540b1e395da2b8490332ed737e00","amp;dn":"Vikingdom+2013+DVD9rip+English+Klam","amp;tr":["udp%3A%2F%2Ftracker.openbittorrent.com%3A80","udp%3A%2F%2Fopen.demonii.com%3A1337","udp%3A%2F%2Ftracker.coppersurfer.tk%3A6969","udp%3A%2F%2Fexodus.desync.com%3A6969"],"infoHash":"08cfacadd5b8540b1e395da2b8490332ed737e00","infoHashBuffer":{"type":"Buffer","data":[8,207,172,173,213,184,84,11,30,57,93,162,184,73,3,50,237,115,126,0]},"announce":[],"urlList":[]}}